<svg width="56" height="33" viewBox="0 0 56 33" fill="none" xmlns="http://www.w3.org/2000/svg">
<path d="M9.35934 9.0435L15.1913 24.0675C15.4153 24.6435 15.6633 25.0435 15.9353 25.2675C16.2233 25.4755 16.4793 25.5875 16.7033 25.6035V26.0835C16.2233 26.0515 15.6553 26.0355 14.9993 26.0355C14.3593 26.0195 13.7113 26.0115 13.0553 26.0115C12.3193 26.0115 11.6233 26.0195 10.9673 26.0355C10.3113 26.0355 9.79134 26.0515 9.40734 26.0835V25.6035C10.2233 25.5715 10.7353 25.4355 10.9433 25.1955C11.1673 24.9395 11.1193 24.4035 10.7993 23.5875L6.71934 12.4275L7.15134 11.8035L3.50334 21.3075C3.15134 22.1875 2.93534 22.9075 2.85534 23.4675C2.79134 24.0275 2.83134 24.4595 2.97534 24.7635C3.13534 25.0675 3.38334 25.2835 3.71934 25.4115C4.07134 25.5235 4.48734 25.5875 4.96734 25.6035V26.0835C4.43934 26.0515 3.93534 26.0355 3.45534 26.0355C2.97534 26.0195 2.48734 26.0115 1.99134 26.0115C1.63934 26.0115 1.30334 26.0195 0.983344 26.0355C0.679344 26.0355 0.407344 26.0515 0.167344 26.0835V25.6035C0.503344 25.5395 0.847344 25.3235 1.19934 24.9555C1.55134 24.5875 1.89534 23.9635 2.23134 23.0835L7.70334 9.0435C7.95934 9.05949 8.23134 9.06749 8.51934 9.06749C8.82334 9.06749 9.10334 9.05949 9.35934 9.0435ZM11.0393 19.1715V19.6515H3.88734L4.12734 19.1715H11.0393ZM28.8166 13.4115V23.4675C28.8166 24.1875 28.9286 24.7235 29.1526 25.0755C29.3766 25.4115 29.7766 25.5795 30.3526 25.5795V26.0835C29.8566 26.0355 29.3606 26.0115 28.8646 26.0115C28.1926 26.0115 27.5686 26.0355 26.9926 26.0835C26.4166 26.1315 25.8726 26.2195 25.3606 26.3475V24.1875C24.9766 24.9875 24.4406 25.5635 23.7526 25.9155C23.0806 26.2515 22.3286 26.4195 21.4966 26.4195C20.8246 26.4195 20.2806 26.3315 19.8646 26.1555C19.4486 25.9795 19.1206 25.7555 18.8806 25.4835C18.6086 25.1795 18.4166 24.7795 18.3046 24.2835C18.1926 23.7875 18.1366 23.1475 18.1366 22.3635V16.2915C18.1366 15.5715 18.0246 15.0435 17.8006 14.7075C17.5926 14.3555 17.1926 14.1795 16.6006 14.1795V13.6755C17.1126 13.7235 17.6086 13.7475 18.0886 13.7475C18.7606 13.7475 19.3846 13.7235 19.9606 13.6755C20.5526 13.6115 21.0966 13.5235 21.5926 13.4115V23.3475C21.5926 23.7475 21.6246 24.0995 21.6886 24.4035C21.7686 24.7075 21.9126 24.9475 22.1206 25.1235C22.3286 25.2835 22.6326 25.3635 23.0326 25.3635C23.4646 25.3635 23.8486 25.2435 24.1846 25.0035C24.5366 24.7635 24.8166 24.4355 25.0246 24.0195C25.2486 23.5875 25.3606 23.1075 25.3606 22.5795V16.2915C25.3606 15.5715 25.2486 15.0435 25.0246 14.7075C24.8166 14.3555 24.4166 14.1795 23.8246 14.1795V13.6755C24.3366 13.7235 24.8326 13.7475 25.3126 13.7475C25.9846 13.7475 26.6086 13.7235 27.1846 13.6755C27.7766 13.6115 28.3206 13.5235 28.8166 13.4115ZM40.1553 13.3395C40.6673 13.3395 41.0833 13.4515 41.4033 13.6755C41.7233 13.8835 41.9553 14.1555 42.0993 14.4915C42.2593 14.8275 42.3393 15.1795 42.3393 15.5475C42.3393 16.1395 42.1633 16.6275 41.8113 17.0115C41.4753 17.3795 41.0273 17.5635 40.4673 17.5635C39.9073 17.5635 39.4673 17.4275 39.1473 17.1555C38.8433 16.8675 38.6913 16.4915 38.6913 16.0275C38.6913 15.5795 38.7873 15.2115 38.9793 14.9235C39.1873 14.6195 39.4433 14.3635 39.7473 14.1555C39.5233 14.0915 39.2993 14.0995 39.0753 14.1795C38.7713 14.2275 38.4833 14.3555 38.2113 14.5635C37.9393 14.7555 37.7073 15.0035 37.5153 15.3075C37.3233 15.5955 37.1713 15.9155 37.0593 16.2675C36.9473 16.6035 36.8913 16.9315 36.8913 17.2515V23.6115C36.8913 24.3795 37.0753 24.8995 37.4433 25.1715C37.8273 25.4435 38.3953 25.5795 39.1473 25.5795V26.0835C38.7793 26.0675 38.2433 26.0515 37.5393 26.0355C36.8353 26.0035 36.0993 25.9875 35.3313 25.9875C34.6913 25.9875 34.0433 26.0035 33.3873 26.0355C32.7313 26.0515 32.2353 26.0675 31.8993 26.0835V25.5795C32.4593 25.5795 32.8513 25.4595 33.0753 25.2195C33.3153 24.9795 33.4353 24.5235 33.4353 23.8515V16.2915C33.4353 15.5715 33.3233 15.0435 33.0993 14.7075C32.8913 14.3555 32.4913 14.1795 31.8993 14.1795V13.6755C32.4113 13.7235 32.9073 13.7475 33.3873 13.7475C34.0593 13.7475 34.6833 13.7235 35.2593 13.6755C35.8513 13.6115 36.3953 13.5235 36.8913 13.4115V15.6435C37.0833 15.2115 37.3393 14.8195 37.6593 14.4675C37.9793 14.1155 38.3473 13.8435 38.7633 13.6515C39.1793 13.4435 39.6433 13.3395 40.1553 13.3395ZM46.8944 26.2515C46.1744 26.2515 45.5744 26.1155 45.0944 25.8435C44.6144 25.5715 44.2624 25.2115 44.0384 24.7635C43.8144 24.2995 43.7024 23.7955 43.7024 23.2515C43.7024 22.5635 43.8544 22.0035 44.1584 21.5715C44.4784 21.1395 44.8864 20.7875 45.3824 20.5155C45.8784 20.2435 46.3984 20.0195 46.9424 19.8435C47.5024 19.6675 48.0304 19.4995 48.5264 19.3395C49.0384 19.1635 49.4464 18.9635 49.7504 18.7395C50.0704 18.4995 50.2304 18.1955 50.2304 17.8275V15.9555C50.2304 15.5395 50.1584 15.1715 50.0144 14.8515C49.8864 14.5155 49.6784 14.2595 49.3904 14.0835C49.1184 13.9075 48.7584 13.8195 48.3104 13.8195C47.9904 13.8195 47.6704 13.8675 47.3504 13.9635C47.0304 14.0435 46.7664 14.1875 46.5584 14.3955C47.0064 14.5555 47.3504 14.8035 47.5904 15.1395C47.8464 15.4595 47.9744 15.8275 47.9744 16.2435C47.9744 16.7875 47.7824 17.2195 47.3984 17.5395C47.0304 17.8595 46.5904 18.0195 46.0784 18.0195C45.5024 18.0195 45.0624 17.8435 44.7584 17.4915C44.4704 17.1235 44.3264 16.6835 44.3264 16.1715C44.3264 15.7075 44.4384 15.3235 44.6624 15.0195C44.9024 14.7155 45.2304 14.4275 45.6464 14.1555C46.0944 13.8995 46.6304 13.6995 47.2544 13.5555C47.8944 13.4115 48.5824 13.3395 49.3184 13.3395C50.0544 13.3395 50.7184 13.4195 51.3104 13.5795C51.9024 13.7235 52.3984 13.9955 52.7984 14.3955C53.1664 14.7635 53.4064 15.2195 53.5184 15.7635C53.6304 16.2915 53.6864 16.9635 53.6864 17.7795V24.3075C53.6864 24.7075 53.7264 24.9875 53.8064 25.1475C53.8864 25.2915 54.0224 25.3635 54.2144 25.3635C54.3584 25.3635 54.4944 25.3235 54.6224 25.2435C54.7664 25.1635 54.9184 25.0675 55.0784 24.9555L55.3184 25.3635C54.9824 25.6515 54.5904 25.8755 54.1424 26.0355C53.7104 26.1795 53.2224 26.2515 52.6784 26.2515C52.0864 26.2515 51.6144 26.1715 51.2624 26.0115C50.9104 25.8355 50.6544 25.6035 50.4944 25.3155C50.3504 25.0275 50.2784 24.6915 50.2784 24.3075C49.8944 24.9155 49.4304 25.3955 48.8864 25.7475C48.3424 26.0835 47.6784 26.2515 46.8944 26.2515ZM48.5984 24.7155C48.9184 24.7155 49.2064 24.6435 49.4624 24.4995C49.7344 24.3395 49.9904 24.0835 50.2304 23.7315V18.8115C50.0864 19.0515 49.8864 19.2675 49.6304 19.4595C49.3744 19.6515 49.1024 19.8515 48.8144 20.0595C48.5264 20.2515 48.2464 20.4675 47.9744 20.7075C47.7184 20.9475 47.5104 21.2435 47.3504 21.5955C47.1904 21.9475 47.1104 22.3715 47.1104 22.8675C47.1104 23.4915 47.2464 23.9555 47.5184 24.2595C47.7904 24.5635 48.1504 24.7155 48.5984 24.7155Z" fill="#B69D72"/>
</svg>
