<svg width="36" height="36" viewBox="0 0 36 36" fill="none" xmlns="http://www.w3.org/2000/svg">
<path d="M18 7.87489C15.5533 7.87541 13.1616 8.60124 11.1272 9.96063C9.09283 11.32 7.5071 13.252 6.5704 15.5123C5.63371 17.7727 5.38809 20.26 5.86459 22.6599C6.34109 25.0598 7.51832 27.2646 9.24751 28.9956C9.56378 29.3125 9.74122 29.742 9.7408 30.1897C9.74038 30.6374 9.56212 31.0666 9.24526 31.3829C8.92839 31.6992 8.49886 31.8766 8.05117 31.8762C7.60347 31.8758 7.17428 31.6975 6.85801 31.3806C4.65676 29.1774 3.15815 26.371 2.55159 23.3162C1.94504 20.2614 2.25778 17.0953 3.45028 14.2182C4.64278 11.3411 6.6615 8.88214 9.25127 7.15214C11.841 5.42214 14.8856 4.49878 18 4.49878C21.1145 4.49878 24.159 5.42214 26.7487 7.15214C29.3385 8.88214 31.3572 11.3411 32.5497 14.2182C33.7422 17.0953 34.055 20.2614 33.4484 23.3162C32.8419 26.371 31.3432 29.1774 29.142 31.3806C28.9864 31.5419 28.8003 31.6705 28.5944 31.7591C28.3886 31.8476 28.1672 31.8943 27.9431 31.8963C27.7191 31.8984 27.4968 31.8558 27.2894 31.771C27.082 31.6863 26.8935 31.5611 26.735 31.4027C26.5765 31.2443 26.4511 31.056 26.3661 30.8486C26.2812 30.6413 26.2384 30.4191 26.2402 30.195C26.2421 29.971 26.2885 29.7495 26.3768 29.5436C26.4652 29.3377 26.5937 29.1514 26.7548 28.9956C28.4841 27.2645 29.6614 25.0595 30.1378 22.6593C30.6142 20.2592 30.3684 17.7717 29.4314 15.5113C28.4945 13.2509 26.9084 11.3189 24.8737 9.95969C22.8389 8.60047 20.447 7.87497 18 7.87489ZM18 16.8749C17.1049 16.8749 16.2465 17.2305 15.6135 17.8634C14.9806 18.4963 14.625 19.3548 14.625 20.2499C14.625 21.145 14.9806 22.0034 15.6135 22.6364C16.2465 23.2693 17.1049 23.6249 18 23.6249C18.8951 23.6249 19.7536 23.2693 20.3865 22.6364C21.0194 22.0034 21.375 21.145 21.375 20.2499C21.375 19.3548 21.0194 18.4963 20.3865 17.8634C19.7536 17.2305 18.8951 16.8749 18 16.8749ZM11.8125 20.2499C11.8125 19.2325 12.0633 18.2309 12.5428 17.3336C13.0222 16.4363 13.7156 15.6711 14.5613 15.1057C15.4071 14.5403 16.3793 14.1922 17.3917 14.0922C18.4041 13.9922 19.4256 14.1433 20.3656 14.5323C21.3057 14.9212 22.1353 15.536 22.7811 16.3221C23.4269 17.1082 23.8689 18.0414 24.0679 19.0391C24.267 20.0368 24.2169 21.0682 23.9223 22.0419C23.6276 23.0157 23.0973 23.9017 22.3785 24.6216C22.0622 24.9385 21.8848 25.368 21.8852 25.8157C21.8856 26.2634 22.0639 26.6926 22.3808 27.0089C22.6976 27.3252 23.1272 27.5026 23.5748 27.5022C24.0225 27.5018 24.4517 27.3235 24.768 27.0066C26.1039 25.6687 27.0132 23.9648 27.381 22.1103C27.7487 20.2557 27.5585 18.3338 26.8343 16.5873C26.1101 14.8408 24.8845 13.3483 23.3123 12.2982C21.74 11.2481 19.8918 10.6876 18.0011 10.6876C16.1105 10.6876 14.2622 11.2481 12.69 12.2982C11.1178 13.3483 9.89213 14.8408 9.16793 16.5873C8.44374 18.3338 8.25352 20.2557 8.6213 22.1103C8.98909 23.9648 9.89838 25.6687 11.2343 27.0066C11.3887 27.1724 11.575 27.3054 11.782 27.3976C11.989 27.4899 12.2125 27.5395 12.4391 27.5435C12.6657 27.5475 12.8907 27.5058 13.1009 27.4209C13.311 27.336 13.5019 27.2097 13.6621 27.0495C13.8223 26.8892 13.9487 26.6984 14.0335 26.4882C14.1184 26.2781 14.1601 26.053 14.1561 25.8265C14.1521 25.5999 14.1025 25.3764 14.0103 25.1694C13.918 24.9624 13.7851 24.7761 13.6193 24.6216C13.045 24.0478 12.5898 23.3663 12.2797 22.616C11.9697 21.8658 11.8109 21.0617 11.8125 20.2499Z" fill="#44F279"/>
</svg>
