<svg width="384" height="36" viewBox="0 0 384 36" fill="none" xmlns="http://www.w3.org/2000/svg">
<path d="M32.7083 15.0623H31.5V15H18V21H26.4773C25.2405 24.4928 21.9172 27 18 27C13.0297 27 9 22.9702 9 18C9 13.0297 13.0297 9 18 9C20.2943 9 22.3815 9.8655 23.9708 11.2792L28.2135 7.0365C25.5345 4.53975 21.951 3 18 3C9.71625 3 3 9.71625 3 18C3 26.2838 9.71625 33 18 33C26.2838 33 33 26.2838 33 18C33 16.9943 32.8965 16.0125 32.7083 15.0623Z" fill="#FFC107"/>
<path d="M4.72949 11.0182L9.65774 14.6325C10.9912 11.331 14.2207 9 18 9C20.2942 9 22.3815 9.8655 23.9707 11.2792L28.2135 7.0365C25.5345 4.53975 21.951 3 18 3C12.2385 3 7.24199 6.25275 4.72949 11.0182Z" fill="#FF3D00"/>
<path d="M18.0002 33C21.8747 33 25.3952 31.5173 28.057 29.106L23.4145 25.1775C21.8579 26.3613 19.9558 27.0016 18.0002 27C14.0987 27 10.786 24.5123 9.53798 21.0405L4.64648 24.8093C7.12898 29.667 12.1705 33 18.0002 33Z" fill="#4CAF50"/>
<path d="M32.7083 15.0623H31.5V15H18V21H26.4773C25.8857 22.6623 24.82 24.1149 23.412 25.1782L23.4142 25.1768L28.0568 29.1052C27.7283 29.4037 33 25.5 33 18C33 16.9943 32.8965 16.0125 32.7083 15.0623Z" fill="#1976D2"/>
<path d="M126.232 15.0863C126.232 15.525 126.279 15.8808 126.363 16.1409C126.457 16.4014 126.576 16.686 126.741 16.9937C126.8 17.0882 126.824 17.1827 126.824 17.2662C126.824 17.3838 126.752 17.5025 126.599 17.6209L125.853 18.1187C125.746 18.189 125.639 18.2253 125.545 18.2253C125.427 18.2253 125.308 18.1659 125.189 18.0593C125.03 17.8875 124.887 17.7011 124.763 17.5025C124.631 17.2746 124.509 17.0415 124.396 16.8036C123.473 17.8934 122.312 18.4385 120.914 18.4385C119.92 18.4385 119.127 18.1538 118.546 17.5857C117.966 17.0168 117.67 16.2588 117.67 15.3115C117.67 14.3052 118.025 13.4879 118.748 12.8728C119.47 12.2563 120.429 11.9486 121.649 11.9486C122.052 11.9486 122.466 11.9838 122.904 12.0431C123.342 12.1025 123.793 12.197 124.266 12.3036V11.439C124.266 10.539 124.076 9.91181 123.709 9.54506C123.33 9.17803 122.691 9 121.779 9C121.364 9 120.938 9.04725 120.5 9.15384C120.065 9.25757 119.637 9.39226 119.221 9.55688C119.031 9.63928 118.889 9.68653 118.807 9.71072C118.723 9.73378 118.664 9.74588 118.617 9.74588C118.451 9.74588 118.369 9.62719 118.369 9.37913V8.79891C118.369 8.60878 118.392 8.46703 118.451 8.38378C118.51 8.30138 118.617 8.21897 118.783 8.13544C119.197 7.92225 119.695 7.7445 120.275 7.60247C120.855 7.44863 121.471 7.37747 122.122 7.37747C123.531 7.37747 124.561 7.69697 125.225 8.33653C125.877 8.97581 126.207 9.94697 126.207 11.25V15.0863H126.232ZM121.424 16.8871C121.814 16.8871 122.217 16.8157 122.644 16.6739C123.07 16.531 123.449 16.2709 123.769 15.9159C123.958 15.6909 124.1 15.4423 124.171 15.158C124.242 14.8733 124.289 14.5308 124.289 14.1272V13.6308C123.931 13.5426 123.567 13.4751 123.201 13.4286C122.831 13.382 122.459 13.3585 122.087 13.3583C121.294 13.3583 120.713 13.5121 120.322 13.8319C119.932 14.1514 119.742 14.6008 119.742 15.1931C119.742 15.75 119.884 16.1643 120.18 16.4486C120.465 16.7442 120.879 16.8871 121.424 16.8871ZM130.933 18.1659C130.72 18.1659 130.578 18.1308 130.483 18.0472C130.388 17.9758 130.305 17.811 130.234 17.586L127.451 8.43188C127.381 8.19478 127.344 8.04094 127.344 7.95741C127.344 7.76841 127.439 7.66209 127.629 7.66209H128.789C129.014 7.66209 129.168 7.69697 129.252 7.7805C129.346 7.85081 129.418 8.01675 129.488 8.24175L131.478 16.0819L133.325 8.24203C133.384 8.00578 133.455 7.85109 133.55 7.78078C133.645 7.70906 133.811 7.66181 134.024 7.66181H134.971C135.196 7.66181 135.35 7.69697 135.445 7.7805C135.539 7.85081 135.623 8.01675 135.67 8.24175L137.541 16.1764L139.59 8.24203C139.66 8.00578 139.744 7.85109 139.826 7.78078C139.921 7.70906 140.076 7.66181 140.289 7.66181H141.389C141.58 7.66181 141.686 7.75631 141.686 7.95741C141.686 8.01647 141.674 8.07609 141.662 8.14753C141.65 8.21897 141.627 8.31347 141.58 8.44284L138.725 17.5978C138.654 17.8341 138.572 17.9879 138.476 18.0591C138.381 18.1308 138.228 18.178 138.027 18.178H137.008C136.783 18.178 136.629 18.1415 136.535 18.0593C136.439 17.9758 136.357 17.822 136.309 17.5857L134.474 9.94697L132.65 17.5736C132.591 17.811 132.52 17.9648 132.425 18.0472C132.33 18.1308 132.164 18.1659 131.951 18.1659H130.933ZM146.15 18.4857C145.535 18.4857 144.918 18.4143 144.326 18.2725C143.734 18.1308 143.273 17.9758 142.965 17.7989C142.775 17.6923 142.645 17.5739 142.598 17.467C142.551 17.3626 142.527 17.2496 142.527 17.1352V16.531C142.527 16.283 142.621 16.1643 142.799 16.1643C142.87 16.1643 142.941 16.1764 143.012 16.2006C143.083 16.2236 143.189 16.2709 143.308 16.3181C143.726 16.502 144.163 16.6411 144.611 16.7333C145.084 16.8278 145.546 16.875 146.02 16.875C146.766 16.875 147.346 16.7442 147.748 16.4841C148.152 16.2236 148.365 15.8445 148.365 15.3591C148.365 15.0272 148.258 14.7558 148.045 14.5305C147.832 14.3055 147.429 14.1041 146.849 13.9143L145.131 13.3813C144.267 13.1088 143.627 12.7069 143.238 12.1739C142.847 11.6522 142.645 11.072 142.645 10.4569C142.645 9.95906 142.752 9.52088 142.965 9.14175C143.176 8.76078 143.467 8.42961 143.817 8.17059C144.172 7.89919 144.576 7.69697 145.049 7.55522C145.523 7.41347 146.02 7.35413 146.541 7.35413C146.802 7.35413 147.074 7.36622 147.334 7.40138C147.607 7.43653 147.855 7.48378 148.104 7.53103C148.341 7.59038 148.566 7.64972 148.779 7.72116C148.992 7.79259 149.158 7.86291 149.277 7.93434C149.443 8.02884 149.561 8.12334 149.631 8.22966C149.703 8.32528 149.738 8.45522 149.738 8.62088V9.17775C149.738 9.42638 149.644 9.55688 149.466 9.55688C149.371 9.55688 149.217 9.50878 149.016 9.41428C148.341 9.10659 147.583 8.95275 146.742 8.95275C146.067 8.95275 145.535 9.05934 145.168 9.28463C144.8 9.50878 144.611 9.85275 144.611 10.3382C144.611 10.6701 144.729 10.9544 144.966 11.1786C145.203 11.4036 145.641 11.6291 146.269 11.8299L147.95 12.3629C148.803 12.6354 149.419 13.0143 149.785 13.5C150.152 13.9857 150.33 14.5426 150.33 15.158C150.33 15.6676 150.223 16.1291 150.023 16.531C149.809 16.9343 149.525 17.2893 149.158 17.5736C148.791 17.8692 148.353 18.0824 147.844 18.2374C147.311 18.4022 146.754 18.4857 146.15 18.4857Z" fill="#252F3E"/>
<path d="M149.187 20.6291C147.941 20.6468 146.469 20.925 145.357 21.7069C145.013 21.9552 145.072 22.2868 145.451 22.2396C146.719 22.0857 149.512 21.7541 150.01 22.3934C150.508 23.0206 149.454 25.6615 148.98 26.8343C148.838 27.1887 149.146 27.3319 149.465 27.0593C151.549 25.3069 152.094 21.6475 151.668 21.1146C151.455 20.8544 150.434 20.6111 149.187 20.6291ZM116.458 21.3353C116.198 21.368 116.08 21.683 116.355 21.9319C120.998 26.1231 127.143 28.6459 133.965 28.6459C138.832 28.6459 144.492 27.1187 148.388 24.2415C149.027 23.7667 148.471 23.0451 147.819 23.3404C143.45 25.1882 138.701 26.0882 134.379 26.0882C127.973 26.0882 121.779 24.3239 116.758 21.4101C116.648 21.3452 116.546 21.3246 116.459 21.3353H116.458Z" fill="#FF9900"/>
<g clip-path="url(#clip0_334_13907)">
<path d="M268 18C268 8.05894 259.941 0 250 0C240.059 0 232 8.0588 232 18C232 26.9842 238.582 34.431 247.188 35.7813V23.2031H242.617V18H247.188V14.0344C247.188 9.52312 249.875 7.03125 253.986 7.03125C255.956 7.03125 258.016 7.38281 258.016 7.38281V11.8125H255.746C253.51 11.8125 252.812 13.2 252.812 14.6236V18H257.805L257.007 23.2031H252.812V35.7813C261.418 34.431 268 26.9844 268 18Z" fill="#1877F2"/>
<path d="M257.007 23.2031L257.805 18H252.812V14.6236C252.812 13.1999 253.51 11.8125 255.746 11.8125H258.016V7.38281C258.016 7.38281 255.956 7.03125 253.986 7.03125C249.875 7.03125 247.188 9.52313 247.188 14.0344V18H242.617V23.2031H247.188V35.7813C248.118 35.9271 249.058 36.0002 250 36C250.942 36.0003 251.882 35.9272 252.812 35.7813V23.2031H257.007Z" fill="white"/>
</g>
<path d="M366.002 20.25C356.886 20.25 349.502 21.2573 349.502 22.5045C349.502 23.7443 356.886 24.75 366.002 24.75C375.119 24.75 382.502 23.7443 382.502 22.5045C382.502 21.2573 375.119 20.25 366.002 20.25ZM366.002 23.229C363.855 23.229 362.109 22.8585 362.109 22.401C362.109 21.9442 363.855 21.573 366.002 21.573C368.148 21.573 369.897 21.9442 369.897 22.401C369.897 22.8585 368.148 23.229 366.002 23.229Z" fill="#42A5F5"/>
<path d="M363.968 11.25L365.746 16.0725L369.938 11.25H377.052C380.538 11.25 382.982 12.861 382.421 14.928C381.862 16.995 378.537 18.606 375.069 18.606H370.347C370.347 18.606 370.453 18.5737 370.476 18.5115C370.661 17.8035 371.757 13.8135 371.77 13.7512C371.785 13.6747 371.691 13.6515 371.691 13.6515H375.12C375.12 13.6515 375.054 13.647 375.027 13.7512C374.737 14.7944 374.451 15.8384 374.168 16.8832C374.151 16.9537 374.046 16.9875 374.046 16.9875H374.867C376.812 16.9875 378.652 16.3665 379.039 14.9265C379.394 13.6125 378.106 12.867 376.01 12.867H375.249L371.968 12.87L364.436 20.319L361.552 13.0035C361.552 13.0035 361.525 12.954 361.503 12.8932C361.493 12.8737 361.422 12.8138 361.349 12.846C361.3 12.873 361.293 12.9338 361.299 12.9555C361.326 13.005 361.331 13.0155 361.335 13.0388C361.762 13.7363 361.686 14.5455 361.583 14.9288C361.002 16.9913 357.693 18.6068 354.224 18.6068H349.502C349.502 18.6068 349.614 18.5745 349.631 18.5123C349.821 17.8028 350.919 13.7918 350.925 13.752C350.939 13.6845 350.851 13.6522 350.851 13.6522H354.304C354.304 13.6522 354.205 13.68 354.186 13.7505C354.168 13.809 353.47 16.3245 353.322 16.884C353.305 16.9545 353.189 16.9882 353.189 16.9882H354.027C355.975 16.9882 357.801 16.3672 358.188 14.9272C358.542 13.6133 357.265 12.8677 355.172 12.8677H351.067C351.067 12.8677 351.161 12.8235 351.177 12.7635C351.27 12.4312 351.55 11.388 351.564 11.3393C351.579 11.2853 351.485 11.25 351.485 11.25H363.968Z" fill="#1565C0"/>
<defs>
<clipPath id="clip0_334_13907">
<rect width="36" height="36" fill="white" transform="translate(232)"/>
</clipPath>
</defs>
</svg>
