<svg width="176" height="33" viewBox="0 0 176 33" fill="none" xmlns="http://www.w3.org/2000/svg">
<path fill-rule="evenodd" clip-rule="evenodd" d="M6.22461 4.36175C5.69418 4.36175 5.18547 4.57246 4.8104 4.94753C4.43532 5.32261 4.22461 5.83131 4.22461 6.36175V26.3617C4.22461 26.8922 4.43532 27.4009 4.8104 27.776C5.18547 28.151 5.69418 28.3617 6.22461 28.3617H26.2246C26.755 28.3617 27.2638 28.151 27.6388 27.776C28.0139 27.4009 28.2246 26.8922 28.2246 26.3617V6.36175C28.2246 5.83131 28.0139 5.32261 27.6388 4.94753C27.2638 4.57246 26.755 4.36175 26.2246 4.36175H6.22461ZM21.5579 11.0284H19.5579V21.6951H21.5579V11.0284ZM22.8913 13.0284H24.8913V15.6951H25.5579V17.0284H24.8913V19.6951H22.8913V13.0284ZM10.8913 21.6951H12.8913V11.0284H10.8913V21.6951ZM9.55794 19.6951H7.55794V17.0284H6.89128V15.6951H7.55794V13.0284H9.55794V19.6951ZM14.2246 17.0284H18.2246V15.6951H14.2246V17.0284Z" fill="#6B41BD"/>
<path d="M56.3046 23.8617H51.9846V17.0217H45.9846V23.8617H41.6646V7.06175H45.9846V13.6617H51.9846V7.06175H56.3046V23.8617ZM62.1959 23.8617H57.5159L63.8759 7.06175H68.6759L75.0359 23.8617H70.3559L69.2759 20.8617H63.2759L62.1959 23.8617ZM64.3559 17.7417H68.1959L66.2759 12.1017L64.3559 17.7417ZM76.2349 7.06175H85.8349C87.4029 7.06175 88.5549 7.42175 89.2909 8.14175C90.0269 8.84575 90.3949 9.92575 90.3949 11.3817C90.3949 12.3417 90.1869 13.1257 89.7709 13.7337C89.3549 14.3257 88.8429 14.7417 88.2349 14.9817C89.5309 15.3337 90.4109 16.1977 90.8749 17.5737C91.0349 18.0697 91.1149 18.6457 91.1149 19.3017C91.1149 20.8697 90.7469 22.0217 90.0109 22.7577C89.2749 23.4937 88.1229 23.8617 86.5549 23.8617H76.2349V7.06175ZM86.7949 18.5817C86.7949 17.6217 86.3149 17.1417 85.3549 17.1417H80.5549V20.5017H85.3549C86.3149 20.5017 86.7949 20.0217 86.7949 19.0617V18.5817ZM86.0749 11.8617C86.0749 10.9017 85.5949 10.4217 84.6349 10.4217H80.5549V13.7817H84.6349C85.5949 13.7817 86.0749 13.3017 86.0749 12.3417V11.8617ZM101.194 23.8617H92.554V20.5017H94.714V10.4217H92.554V7.06175H101.194V10.4217H99.034V20.5017H101.194V23.8617ZM111.512 23.8617H107.192V10.4217H102.152V7.06175H116.552V10.4217H111.512V23.8617Z" fill="#6B41BD"/>
<path d="M128.43 23.8617H123.75L130.11 7.06175H134.91L141.27 23.8617H136.59L135.51 20.8617H129.51L128.43 23.8617ZM130.59 17.7417H134.43L132.51 12.1017L130.59 17.7417ZM142.469 7.06175H152.549C154.229 7.06175 155.445 7.44575 156.197 8.21375C156.965 8.96575 157.349 10.1817 157.349 11.8617V14.2617C157.349 15.9417 156.965 17.1657 156.197 17.9337C155.445 18.6857 154.229 19.0617 152.549 19.0617H146.789V23.8617H142.469V7.06175ZM153.029 11.8617C153.029 10.9017 152.549 10.4217 151.589 10.4217H146.789V15.7017H151.589C152.549 15.7017 153.029 15.2217 153.029 14.2617V11.8617ZM159.508 7.06175H169.588C171.268 7.06175 172.484 7.44575 173.236 8.21375C174.004 8.96575 174.388 10.1817 174.388 11.8617V14.2617C174.388 15.9417 174.004 17.1657 173.236 17.9337C172.484 18.6857 171.268 19.0617 169.588 19.0617H163.828V23.8617H159.508V7.06175ZM170.068 11.8617C170.068 10.9017 169.588 10.4217 168.628 10.4217H163.828V15.7017H168.628C169.588 15.7017 170.068 15.2217 170.068 14.2617V11.8617Z" fill="#141414"/>
</svg>
