<svg width="133" height="30" viewBox="0 0 133 30" fill="none" xmlns="http://www.w3.org/2000/svg">
<path d="M4.65039 23.3051H2.24805V6.50037H4.65039V23.3051ZM11.2827 23.3051H8.88039V10.1097H17.8804C18.7866 10.1097 19.6382 10.2855 20.4351 10.6371C21.232 10.9808 21.9273 11.4535 22.521 12.0551C23.1148 12.6488 23.5835 13.348 23.9273 14.1527C24.271 14.9496 24.4429 15.8011 24.4429 16.7074V23.3051H22.0405V16.7074C22.0405 16.1293 21.9312 15.5863 21.7124 15.0785C21.4937 14.5707 21.1968 14.1293 20.8218 13.7543C20.4468 13.3715 20.0054 13.0707 19.4976 12.8519C18.9976 12.6254 18.4585 12.5082 17.8804 12.5004H11.2827V23.3051ZM30.5596 23.3051H28.1573V10.1097H37.1573C38.0635 10.1097 38.9151 10.2855 39.712 10.6371C40.5088 10.9808 41.2041 11.4535 41.7979 12.0551C42.3916 12.6488 42.8604 13.348 43.2041 14.1527C43.5479 14.9496 43.7198 15.8011 43.7198 16.7074V23.3051H41.3174V16.7074C41.3174 16.1293 41.208 15.5863 40.9893 15.0785C40.7705 14.5707 40.4737 14.1293 40.0987 13.7543C39.7237 13.3715 39.2823 13.0707 38.7745 12.8519C38.2745 12.6254 37.7354 12.5082 37.1573 12.5004H30.5596V23.3051ZM63.3951 16.7074C63.3951 17.6136 63.2232 18.4652 62.8795 19.2621C62.5357 20.059 62.067 20.7582 61.4732 21.3597C60.8873 21.9535 60.1959 22.4261 59.399 22.7777C58.6021 23.1215 57.7505 23.2972 56.8443 23.3051H53.1529C52.2466 23.2972 51.3951 23.1215 50.5982 22.7777C49.8013 22.4261 49.106 21.9535 48.5123 21.3597C47.9263 20.7582 47.4615 20.059 47.1177 19.2621C46.774 18.4652 46.6021 17.6136 46.6021 16.7074C46.6021 15.8011 46.774 14.9496 47.1177 14.1527C47.4615 13.348 47.9263 12.6488 48.5123 12.0551C49.106 11.4535 49.8013 10.9808 50.5982 10.6371C51.3951 10.2855 52.2466 10.1097 53.1529 10.1097H56.8443C57.4459 10.1097 58.0279 10.1879 58.5904 10.3441C59.1529 10.5004 59.6763 10.723 60.1607 11.0121C60.6451 11.3011 61.0865 11.6488 61.4849 12.0551C61.8834 12.4535 62.2232 12.8988 62.5045 13.391C62.7857 13.8754 63.0045 14.3988 63.1607 14.9613C63.317 15.5238 63.3951 16.1058 63.3951 16.7074ZM61.0045 16.7074C61.0045 16.1293 60.8951 15.5863 60.6763 15.0785C60.4576 14.5707 60.1607 14.1293 59.7857 13.7543C59.4107 13.3715 58.9693 13.0707 58.4615 12.8519C57.9615 12.6254 57.4224 12.5082 56.8443 12.5004H53.1529C52.5748 12.5082 52.0318 12.6254 51.524 12.8519C51.024 13.0707 50.5865 13.3715 50.2115 13.7543C49.8365 14.1293 49.5396 14.5707 49.3209 15.0785C49.1099 15.5863 49.0045 16.1293 49.0045 16.7074C49.0045 17.2855 49.1099 17.8285 49.3209 18.3363C49.5396 18.8441 49.8365 19.2894 50.2115 19.6722C50.5865 20.0472 51.024 20.348 51.524 20.5746C52.0318 20.7933 52.5748 20.9027 53.1529 20.9027H56.8443C57.4224 20.9027 57.9615 20.7933 58.4615 20.5746C58.9693 20.348 59.4107 20.0472 59.7857 19.6722C60.1607 19.2894 60.4576 18.8441 60.6763 18.3363C60.8951 17.8285 61.0045 17.2855 61.0045 16.7074ZM81.9688 10.1097L74.6798 23.3051H71.9376L64.6954 10.1097H67.4962L73.3087 20.809L79.168 10.1097H81.9688ZM99.4293 14.3051C99.4293 14.891 99.3199 15.4379 99.1012 15.9457C98.8824 16.4535 98.5816 16.8988 98.1988 17.2816C97.8238 17.6566 97.3785 17.9535 96.8629 18.1722C96.3551 18.391 95.8121 18.5004 95.234 18.5004H86.0348C86.2066 18.8519 86.4215 19.1761 86.6793 19.473C86.9371 19.7699 87.2262 20.0238 87.5465 20.2347C87.8668 20.4457 88.2145 20.6097 88.5895 20.7269C88.9723 20.8441 89.3707 20.9027 89.7848 20.9027H97.6363V23.3051H89.7848C88.8785 23.2972 88.027 23.1215 87.2301 22.7777C86.4332 22.4261 85.7379 21.9535 85.1441 21.3597C84.5582 20.7582 84.0934 20.059 83.7496 19.2621C83.4059 18.4652 83.234 17.6136 83.234 16.7074C83.234 15.8011 83.4059 14.9496 83.7496 14.1527C84.0934 13.3558 84.5582 12.6605 85.1441 12.0668C85.7379 11.4652 86.4332 10.9926 87.2301 10.6488C88.027 10.2972 88.8785 10.1176 89.7848 10.1097H95.234C95.8121 10.1097 96.3551 10.2191 96.8629 10.4379C97.3785 10.6566 97.8238 10.9574 98.1988 11.3402C98.5816 11.7152 98.8824 12.1566 99.1012 12.6644C99.3199 13.1722 99.4293 13.7191 99.4293 14.3051ZM95.234 16.1097C95.4762 16.1097 95.7066 16.0629 95.9254 15.9691C96.1441 15.8754 96.3355 15.7465 96.4996 15.5824C96.6637 15.4183 96.7926 15.2269 96.8863 15.0082C96.9801 14.7894 97.027 14.5551 97.027 14.3051C97.027 14.0629 96.9801 13.8324 96.8863 13.6136C96.7926 13.3949 96.6637 13.2035 96.4996 13.0394C96.3355 12.8754 96.1441 12.7465 95.9254 12.6527C95.7066 12.5511 95.4762 12.5004 95.234 12.5004H89.7848C89.2535 12.5004 88.7535 12.5941 88.2848 12.7816C87.8238 12.9691 87.4098 13.2269 87.0426 13.5551C86.6832 13.8754 86.3824 14.2582 86.1402 14.7035C85.9059 15.141 85.7535 15.6097 85.6832 16.1097H95.234ZM116.046 19.1097C116.046 19.6879 115.937 20.2347 115.718 20.7504C115.499 21.2582 115.198 21.7035 114.816 22.0863C114.441 22.4613 113.995 22.7582 113.48 22.9769C112.972 23.1957 112.429 23.3051 111.851 23.3051H101.644V20.9027H111.851C112.093 20.9027 112.323 20.8558 112.542 20.7621C112.761 20.6683 112.952 20.5394 113.116 20.3754C113.28 20.2113 113.409 20.0238 113.503 19.8129C113.597 19.5941 113.644 19.3597 113.644 19.1097C113.644 18.8676 113.597 18.6371 113.503 18.4183C113.409 18.1996 113.28 18.0082 113.116 17.8441C112.952 17.6801 112.761 17.5511 112.542 17.4574C112.323 17.3558 112.093 17.3051 111.851 17.3051H105.241C104.741 17.3051 104.273 17.2113 103.835 17.0238C103.398 16.8363 103.015 16.5824 102.687 16.2621C102.366 15.934 102.112 15.5511 101.925 15.1136C101.737 14.6761 101.644 14.2074 101.644 13.7074C101.644 13.2074 101.737 12.7386 101.925 12.3011C102.112 11.8636 102.366 11.4847 102.687 11.1644C103.015 10.8363 103.398 10.5785 103.835 10.391C104.273 10.2035 104.741 10.1097 105.241 10.1097H114.851V12.5004H105.241C104.905 12.5004 104.62 12.6176 104.386 12.8519C104.159 13.0785 104.046 13.3636 104.046 13.7074C104.046 14.0433 104.159 14.3285 104.386 14.5629C104.62 14.7894 104.905 14.9027 105.241 14.9027H111.851C112.429 14.9027 112.972 15.0121 113.48 15.2308C113.995 15.4496 114.441 15.7504 114.816 16.1332C115.198 16.516 115.499 16.9613 115.718 17.4691C115.937 17.9769 116.046 18.5238 116.046 19.1097ZM123.581 23.3051H121.178V12.5004H117.581V10.1097H121.178V5.30505H123.581V10.1097H131.983V12.5004H123.581V23.3051Z" fill="#4450F2"/>
</svg>
