<svg width="28" height="27" viewBox="0 0 28 27" fill="none" xmlns="http://www.w3.org/2000/svg">
<path d="M2.39491 25.1934L10.8802 16.708M21.5656 12.9347L19.0256 20.556C18.9849 20.6779 18.9154 20.7882 18.823 20.8776C18.7306 20.9669 18.6181 21.0327 18.4949 21.0694L2.92425 25.6987C2.78397 25.7404 2.63495 25.7428 2.49341 25.7056C2.35186 25.6685 2.22322 25.5932 2.12148 25.488C2.01974 25.3828 1.9488 25.2518 1.91637 25.1091C1.88395 24.9664 1.89128 24.8175 1.93758 24.6787L6.99358 9.51337C7.02981 9.40448 7.08905 9.30466 7.16727 9.22069C7.24549 9.13672 7.34086 9.07056 7.44691 9.0267L14.6296 6.06937C14.7756 6.00906 14.9362 5.99334 15.0912 6.02419C15.2461 6.05503 15.3885 6.13107 15.5002 6.2427L21.3722 12.116C21.4773 12.2211 21.5511 12.3533 21.5852 12.4979C21.6193 12.6425 21.6126 12.7938 21.5656 12.9347Z" stroke="#F11CB6" stroke-width="2" stroke-linecap="round" stroke-linejoin="round"/>
<path d="M22.5372 1.96654L25.6892 5.11854C25.9261 5.34516 26.1153 5.6168 26.2458 5.91753C26.3762 6.21826 26.4453 6.54203 26.4489 6.86981C26.4525 7.1976 26.3906 7.52281 26.2669 7.82635C26.1431 8.12989 25.9599 8.40566 25.7281 8.63745C25.4963 8.86924 25.2206 9.0524 24.917 9.17617C24.6135 9.29994 24.2883 9.36183 23.9605 9.35821C23.6327 9.35458 23.309 9.28552 23.0082 9.15507C22.7075 9.02462 22.4358 8.83541 22.2092 8.59854L19.0559 5.44654C18.6111 4.98167 18.3661 4.36113 18.3732 3.71781C18.3803 3.07449 18.639 2.45952 19.094 2.0046C19.5489 1.54967 20.1638 1.29096 20.8072 1.28384C21.4505 1.27673 22.0724 1.52179 22.5372 1.96654Z" fill="#F11CB6" stroke="#F11CB6" stroke-width="2" stroke-linecap="round" stroke-linejoin="round"/>
<path d="M13.7081 13.8786C13.5236 13.6876 13.3029 13.5353 13.0589 13.4304C12.8149 13.3256 12.5525 13.2704 12.2869 13.2681C12.0214 13.2658 11.758 13.3164 11.5122 13.417C11.2664 13.5176 11.0431 13.6661 10.8553 13.8539C10.6675 14.0416 10.519 14.2649 10.4185 14.5107C10.3179 14.7565 10.2673 15.0199 10.2696 15.2854C10.2719 15.551 10.3271 15.8134 10.4319 16.0575C10.5367 16.3015 10.6891 16.5222 10.8801 16.7066C11.2573 17.071 11.7625 17.2725 12.2869 17.268C12.8113 17.2634 13.3129 17.0531 13.6837 16.6823C14.0546 16.3115 14.2649 15.8098 14.2695 15.2854C14.274 14.7611 14.0724 14.2558 13.7081 13.8786Z" stroke="#F11CB6" stroke-width="2" stroke-linecap="round" stroke-linejoin="round"/>
</svg>
